<svg xmlns="http://www.w3.org/2000/svg" width="512" height="512" viewBox="0 0 512 512" version="1.1">
	<path d="M 236.500 0.605 C 200.265 4.325, 173.191 11.844, 143.500 26.435 C 109.366 43.209, 80.247 66.381, 56.708 95.500 C 33.350 124.396, 14.534 163.073, 6.569 198.563 C 1.690 220.302, 0.579 230.959, 0.579 256 C 0.579 281.041, 1.690 291.698, 6.569 313.437 C 14.396 348.312, 33.159 387.180, 55.839 415.500 C 65.542 427.617, 83.294 445.428, 95.500 455.293 C 125.695 479.698, 165.985 498.839, 203 506.364 C 224.438 510.722, 232.392 511.479, 256.500 511.453 C 280.854 511.427, 291.856 510.274, 313 505.529 C 376.415 491.301, 433.976 451.213, 470.271 396 C 479.781 381.533, 493.045 354.214, 498.462 337.937 C 505.317 317.339, 511 289.349, 511 276.181 C 511 273.396, 511.450 270.840, 512 270.500 C 512.595 270.132, 513 263.803, 513 254.882 C 513 245.137, 512.650 240.098, 512 240.500 C 511.382 240.882, 511 239.136, 511 235.937 C 511 222.653, 505.344 194.741, 498.462 174.063 C 493.048 157.795, 479.786 130.476, 470.274 116 C 444.984 77.508, 410.215 46.915, 368.500 26.448 C 343.297 14.084, 320.099 6.825, 292 2.512 C 281.937 0.967, 245.250 -0.293, 236.500 0.605 M 235 57.115 C 197.710 61.372, 161.697 75.924, 133 98.334 C 123.377 105.848, 107.749 121.336, 100.038 131 C 71.750 166.454, 56.016 211.129, 56.016 256 C 56.016 300.871, 71.750 345.546, 100.038 381 C 107.749 390.664, 123.377 406.152, 133 413.666 C 167.418 440.543, 212.299 455.984, 256 455.984 C 276.071 455.984, 298.858 452.313, 318.400 445.931 C 369.443 429.262, 412.474 391.524, 436.012 342.787 C 462.666 287.595, 462.510 223.254, 435.587 168.500 C 424.701 146.360, 412.694 129.789, 395.340 112.955 C 378.327 96.451, 364.660 86.817, 343.500 76.413 C 310.414 60.144, 270.562 53.057, 235 57.115 M 239 83.167 C 194.159 87.395, 149.590 111.385, 121.531 146.398 C 98.559 175.064, 86.221 205.831, 82.894 242.750 C 78.313 293.579, 99.467 347.628, 137.764 382.947 C 173.798 416.179, 222.237 433.169, 269.250 429.069 C 338.297 423.046, 395.179 379.799, 419.282 315 C 435.402 271.661, 432.410 220.831, 411.249 178.500 C 388.031 132.057, 344.212 97.728, 294 86.647 C 274.813 82.412, 258.175 81.360, 239 83.167 M 0.402 256 C 0.402 264.525, 0.556 268.012, 0.743 263.750 C 0.931 259.488, 0.931 252.512, 0.743 248.250 C 0.556 243.988, 0.402 247.475, 0.402 256" stroke="none" fill="black" fill-rule="evenodd"/>
</svg>